{
	"patcher" : 	{
		"fileversion" : 1,
		"rect" : [ 230.0, 188.0, 864.0, 552.0 ],
		"bglocked" : 0,
		"defrect" : [ 230.0, 188.0, 864.0, 552.0 ],
		"openrect" : [ 0.0, 0.0, 0.0, 0.0 ],
		"openinpresentation" : 0,
		"default_fontsize" : 10.0,
		"default_fontface" : 0,
		"default_fontname" : "Verdana",
		"gridonopen" : 0,
		"gridsize" : [ 5.0, 5.0 ],
		"gridsnaponopen" : 0,
		"toolbarvisible" : 1,
		"boxanimatetime" : 200,
		"imprint" : 0,
		"enablehscroll" : 1,
		"enablevscroll" : 1,
		"devicewidth" : 0.0,
		"boxes" : [ 			{
				"box" : 				{
					"maxclass" : "flonum",
					"fontname" : "Verdana",
					"numinlets" : 1,
					"patching_rect" : [ 249.0, 119.0, 50.0, 19.0 ],
					"id" : "obj-11",
					"numoutlets" : 2,
					"fontsize" : 10.0,
					"outlettype" : [ "float", "bang" ]
				}

			}
, 			{
				"box" : 				{
					"maxclass" : "comment",
					"text" : "arg - a parameter of the chaotic function with useful values from\njust below 1.0 to just above 2.0. Towards 2.0 the sound crackles.\nParam values below 0 and above 2 are automatically clipped.",
					"linecount" : 3,
					"fontname" : "Verdana",
					"numinlets" : 1,
					"patching_rect" : [ 348.0, 160.0, 342.0, 43.0 ],
					"id" : "obj-6",
					"numoutlets" : 0,
					"fontsize" : 10.0
				}

			}
, 			{
				"box" : 				{
					"maxclass" : "scope~",
					"numinlets" : 2,
					"patching_rect" : [ 339.0, 218.0, 384.0, 270.0 ],
					"id" : "obj-1",
					"numoutlets" : 0
				}

			}
, 			{
				"box" : 				{
					"maxclass" : "newobj",
					"text" : "sc.crackle~ 1.99",
					"fontname" : "Verdana",
					"numinlets" : 1,
					"patching_rect" : [ 249.0, 162.0, 94.0, 19.0 ],
					"id" : "obj-3",
					"numoutlets" : 1,
					"fontsize" : 10.0,
					"outlettype" : [ "signal" ]
				}

			}
, 			{
				"box" : 				{
					"maxclass" : "newobj",
					"text" : "*~ 0.2",
					"fontname" : "Verdana",
					"numinlets" : 2,
					"patching_rect" : [ 249.0, 249.0, 45.0, 19.0 ],
					"id" : "obj-2",
					"numoutlets" : 1,
					"fontsize" : 10.0,
					"outlettype" : [ "signal" ]
				}

			}
, 			{
				"box" : 				{
					"maxclass" : "comment",
					"text" : "part of sc-max. http://github.com/sbl/sc-max\nport by stephen lumenta\nsupercollider is licensed under the GPL so is this.",
					"linecount" : 3,
					"fontname" : "Verdana",
					"numinlets" : 1,
					"patching_rect" : [ 5.0, 481.0, 279.0, 43.0 ],
					"id" : "obj-12",
					"numoutlets" : 0,
					"fontsize" : 10.0
				}

			}
, 			{
				"box" : 				{
					"maxclass" : "comment",
					"text" : "A noise generator based on a chaotic function.\n",
					"fontname" : "Verdana",
					"numinlets" : 1,
					"patching_rect" : [ 10.0, 45.0, 244.0, 19.0 ],
					"id" : "obj-9",
					"numoutlets" : 0,
					"fontsize" : 10.0
				}

			}
, 			{
				"box" : 				{
					"maxclass" : "comment",
					"text" : "sc.crackle~",
					"fontname" : "Arial",
					"numinlets" : 1,
					"patching_rect" : [ 9.0, 11.0, 125.0, 25.0 ],
					"id" : "obj-7",
					"numoutlets" : 0,
					"fontface" : 3,
					"fontsize" : 16.0
				}

			}
, 			{
				"box" : 				{
					"maxclass" : "ezdac~",
					"numinlets" : 2,
					"patching_rect" : [ 249.0, 320.0, 45.0, 45.0 ],
					"id" : "obj-4",
					"numoutlets" : 0
				}

			}
, 			{
				"box" : 				{
					"maxclass" : "panel",
					"numinlets" : 1,
					"patching_rect" : [ 9.0, 6.0, 134.0, 34.0 ],
					"id" : "obj-10",
					"numoutlets" : 0,
					"rounded" : 0,
					"bgcolor" : [ 0.501961, 0.717647, 0.764706, 1.0 ]
				}

			}
 ],
		"lines" : [ 			{
				"patchline" : 				{
					"source" : [ "obj-11", 0 ],
					"destination" : [ "obj-3", 0 ],
					"hidden" : 0,
					"midpoints" : [  ]
				}

			}
, 			{
				"patchline" : 				{
					"source" : [ "obj-2", 0 ],
					"destination" : [ "obj-4", 0 ],
					"hidden" : 0,
					"midpoints" : [  ]
				}

			}
, 			{
				"patchline" : 				{
					"source" : [ "obj-2", 0 ],
					"destination" : [ "obj-4", 1 ],
					"hidden" : 0,
					"midpoints" : [  ]
				}

			}
, 			{
				"patchline" : 				{
					"source" : [ "obj-3", 0 ],
					"destination" : [ "obj-1", 0 ],
					"hidden" : 0,
					"midpoints" : [  ]
				}

			}
, 			{
				"patchline" : 				{
					"source" : [ "obj-3", 0 ],
					"destination" : [ "obj-2", 0 ],
					"hidden" : 0,
					"midpoints" : [  ]
				}

			}
 ]
	}

}
