{
	"patcher" : 	{
		"fileversion" : 1,
		"rect" : [ 338.0, 44.0, 728.0, 677.0 ],
		"bglocked" : 0,
		"defrect" : [ 338.0, 44.0, 728.0, 677.0 ],
		"openrect" : [ 0.0, 0.0, 0.0, 0.0 ],
		"openinpresentation" : 0,
		"default_fontsize" : 10.0,
		"default_fontface" : 0,
		"default_fontname" : "Verdana",
		"gridonopen" : 0,
		"gridsize" : [ 5.0, 5.0 ],
		"gridsnaponopen" : 0,
		"toolbarvisible" : 1,
		"boxanimatetime" : 200,
		"imprint" : 0,
		"enablehscroll" : 1,
		"enablevscroll" : 1,
		"devicewidth" : 0.0,
		"boxes" : [ 			{
				"box" : 				{
					"maxclass" : "comment",
					"text" : "0 - 1",
					"fontsize" : 10.0,
					"numinlets" : 1,
					"presentation_rect" : [ 532.0, 208.0, 0.0, 0.0 ],
					"numoutlets" : 0,
					"patching_rect" : [ 501.0, 224.0, 64.0, 19.0 ],
					"id" : "obj-38",
					"fontname" : "Verdana"
				}

			}
, 			{
				"box" : 				{
					"maxclass" : "comment",
					"text" : "sane freqs",
					"fontsize" : 10.0,
					"numinlets" : 1,
					"presentation_rect" : [ 395.0, 210.0, 0.0, 0.0 ],
					"numoutlets" : 0,
					"patching_rect" : [ 364.0, 224.0, 64.0, 19.0 ],
					"id" : "obj-37",
					"fontname" : "Verdana"
				}

			}
, 			{
				"box" : 				{
					"maxclass" : "flonum",
					"maximum" : 1.0,
					"fontsize" : 10.0,
					"numinlets" : 1,
					"numoutlets" : 2,
					"outlettype" : [ "float", "bang" ],
					"patching_rect" : [ 540.0, 249.0, 50.0, 19.0 ],
					"id" : "obj-36",
					"fontname" : "Verdana",
					"minimum" : 0.0
				}

			}
, 			{
				"box" : 				{
					"maxclass" : "flonum",
					"maximum" : 1.0,
					"fontsize" : 10.0,
					"numinlets" : 1,
					"numoutlets" : 2,
					"outlettype" : [ "float", "bang" ],
					"patching_rect" : [ 465.0, 249.0, 50.0, 19.0 ],
					"id" : "obj-35",
					"fontname" : "Verdana",
					"minimum" : 0.0
				}

			}
, 			{
				"box" : 				{
					"maxclass" : "comment",
					"text" : "just in case",
					"linecount" : 2,
					"fontsize" : 10.0,
					"numinlets" : 1,
					"numoutlets" : 0,
					"patching_rect" : [ 4.0, 394.0, 52.0, 31.0 ],
					"id" : "obj-31",
					"fontname" : "Verdana"
				}

			}
, 			{
				"box" : 				{
					"maxclass" : "newobj",
					"text" : "tanh~",
					"fontsize" : 10.0,
					"numinlets" : 1,
					"numoutlets" : 1,
					"outlettype" : [ "signal" ],
					"patching_rect" : [ 55.0, 399.0, 41.0, 19.0 ],
					"id" : "obj-24",
					"fontname" : "Verdana"
				}

			}
, 			{
				"box" : 				{
					"maxclass" : "flonum",
					"fontsize" : 10.0,
					"numinlets" : 1,
					"numoutlets" : 2,
					"outlettype" : [ "float", "bang" ],
					"patching_rect" : [ 396.0, 249.0, 50.0, 19.0 ],
					"id" : "obj-30",
					"fontname" : "Verdana"
				}

			}
, 			{
				"box" : 				{
					"maxclass" : "flonum",
					"fontsize" : 10.0,
					"numinlets" : 1,
					"numoutlets" : 2,
					"outlettype" : [ "float", "bang" ],
					"patching_rect" : [ 330.0, 249.0, 50.0, 19.0 ],
					"id" : "obj-25",
					"fontname" : "Verdana"
				}

			}
, 			{
				"box" : 				{
					"maxclass" : "preset",
					"numinlets" : 1,
					"numoutlets" : 4,
					"outlettype" : [ "preset", "int", "preset", "int" ],
					"patching_rect" : [ 54.0, 174.0, 89.0, 16.0 ],
					"id" : "obj-22"
				}

			}
, 			{
				"box" : 				{
					"maxclass" : "comment",
					"text" : "dcblock",
					"fontsize" : 10.0,
					"numinlets" : 1,
					"numoutlets" : 0,
					"patching_rect" : [ 5.0, 361.0, 52.0, 19.0 ],
					"id" : "obj-28",
					"fontname" : "Verdana"
				}

			}
, 			{
				"box" : 				{
					"maxclass" : "newobj",
					"text" : "biquad~ 1. -1. 0. -0.9997 0.",
					"fontsize" : 10.0,
					"numinlets" : 6,
					"numoutlets" : 1,
					"outlettype" : [ "signal" ],
					"patching_rect" : [ 55.0, 361.0, 161.0, 19.0 ],
					"id" : "obj-29",
					"fontname" : "Verdana"
				}

			}
, 			{
				"box" : 				{
					"maxclass" : "flonum",
					"maximum" : 1.0,
					"fontsize" : 10.0,
					"numinlets" : 1,
					"numoutlets" : 2,
					"outlettype" : [ "float", "bang" ],
					"patching_rect" : [ 258.0, 249.0, 50.0, 19.0 ],
					"id" : "obj-27",
					"fontname" : "Verdana",
					"minimum" : 0.00001
				}

			}
, 			{
				"box" : 				{
					"maxclass" : "comment",
					"text" : "0.0001 - 1",
					"fontsize" : 10.0,
					"numinlets" : 1,
					"numoutlets" : 0,
					"patching_rect" : [ 212.0, 224.0, 64.0, 19.0 ],
					"id" : "obj-26",
					"fontname" : "Verdana"
				}

			}
, 			{
				"box" : 				{
					"maxclass" : "flonum",
					"maximum" : 1.0,
					"fontsize" : 10.0,
					"numinlets" : 1,
					"numoutlets" : 2,
					"outlettype" : [ "float", "bang" ],
					"patching_rect" : [ 186.0, 249.0, 50.0, 19.0 ],
					"id" : "obj-21",
					"fontname" : "Verdana",
					"minimum" : 0.00001
				}

			}
, 			{
				"box" : 				{
					"maxclass" : "number",
					"maximum" : 6,
					"fontsize" : 10.0,
					"numinlets" : 1,
					"numoutlets" : 2,
					"outlettype" : [ "int", "bang" ],
					"patching_rect" : [ 123.0, 249.0, 50.0, 19.0 ],
					"id" : "obj-23",
					"fontname" : "Verdana",
					"minimum" : 0
				}

			}
, 			{
				"box" : 				{
					"maxclass" : "comment",
					"text" : "(values between 0-6)",
					"fontsize" : 10.0,
					"numinlets" : 1,
					"numoutlets" : 0,
					"patching_rect" : [ 58.0, 224.0, 119.0, 19.0 ],
					"id" : "obj-20",
					"fontname" : "Verdana"
				}

			}
, 			{
				"box" : 				{
					"maxclass" : "number",
					"maximum" : 6,
					"fontsize" : 10.0,
					"numinlets" : 1,
					"numoutlets" : 2,
					"outlettype" : [ "int", "bang" ],
					"patching_rect" : [ 55.0, 249.0, 50.0, 19.0 ],
					"id" : "obj-17",
					"fontname" : "Verdana",
					"minimum" : 0
				}

			}
, 			{
				"box" : 				{
					"maxclass" : "comment",
					"text" : "this is still not working right...",
					"fontsize" : 18.0,
					"numinlets" : 1,
					"numoutlets" : 0,
					"patching_rect" : [ 10.0, 79.0, 319.0, 28.0 ],
					"id" : "obj-14",
					"fontname" : "Verdana Bold"
				}

			}
, 			{
				"box" : 				{
					"maxclass" : "newobj",
					"text" : "pcontrol",
					"fontsize" : 10.0,
					"numinlets" : 1,
					"numoutlets" : 1,
					"hidden" : 1,
					"outlettype" : [ "" ],
					"patching_rect" : [ 318.0, 42.0, 51.0, 19.0 ],
					"id" : "obj-6",
					"fontname" : "Verdana"
				}

			}
, 			{
				"box" : 				{
					"maxclass" : "newobj",
					"text" : "p details",
					"fontsize" : 10.0,
					"numinlets" : 1,
					"numoutlets" : 0,
					"hidden" : 1,
					"patching_rect" : [ 372.0, 43.0, 53.0, 19.0 ],
					"id" : "obj-5",
					"fontname" : "Verdana",
					"patcher" : 					{
						"fileversion" : 1,
						"rect" : [ 188.0, 48.0, 691.0, 751.0 ],
						"bglocked" : 0,
						"defrect" : [ 188.0, 48.0, 691.0, 751.0 ],
						"openrect" : [ 0.0, 0.0, 0.0, 0.0 ],
						"openinpresentation" : 0,
						"default_fontsize" : 12.0,
						"default_fontface" : 0,
						"default_fontname" : "Arial",
						"gridonopen" : 0,
						"gridsize" : [ 10.0, 10.0 ],
						"gridsnaponopen" : 0,
						"toolbarvisible" : 1,
						"boxanimatetime" : 200,
						"imprint" : 0,
						"enablehscroll" : 1,
						"enablevscroll" : 1,
						"devicewidth" : 0.0,
						"boxes" : [ 							{
								"box" : 								{
									"maxclass" : "comment",
									"text" : "ampdist - Choice of probability distribution for the next perturbation of the amplitude of a control point. \n\nThe distributions are (adapted from the GENDYN program in Formalized Music):\n0- LINEAR\n1- CAUCHY\n2- LOGIST\n3- HYPERBCOS\n4- ARCSINE\n5- EXPON\n6- SINUS\nWhere the sinus (Xenakis' name) is in this implementation taken as sampling from a third party oscillator. See example below.\n\ndurdist- Choice of distribution for the perturbation of the current inter control point duration. \n\nadparam- A parameter for the shape of the amplitude probability distribution, requires values in the range 0.0001 to 1 (there are safety checks in the code so don't worry too much if you want to modulate!)\n\nddparam- A parameter for the shape of the duration probability distribution, requires values in the range 0.0001 to 1\n\nminfreq- Minimum allowed frequency of oscillation for the Gendy1 oscillator, so gives the largest period the duration is allowed to take on. \n\nmaxfreq- Maximum allowed frequency of oscillation for the Gendy1 oscillator, so gives the smallest period the duration is allowed to take on. \n\nampscale- Normally 0.0 to 1.0, multiplier for the distribution's delta value for amplitude. An ampscale of 1.0 allows the full range of  -1 to 1 for a change of amplitude.\n\ndurscale- Normally 0.0 to 1.0, multiplier for the distribution's delta value for duration. An ampscale of 1.0 allows the full range of  -1 to 1 for a change of duration.\n\n// the following are hard coded in the msp external\n\ninitCPs- Initialise the number of control points in the memory. Xenakis specifies 12. There would be this number of control points per cycle of the oscillator, though the oscillator's period will constantly change due to the duration distribution. \n\nknum- Current number of utilised control points, allows modulation.  ",
									"linecount" : 40,
									"fontsize" : 10.0,
									"numinlets" : 1,
									"numoutlets" : 0,
									"patching_rect" : [ 6.0, 248.0, 638.0, 493.0 ],
									"id" : "obj-13",
									"fontname" : "Verdana Bold"
								}

							}
, 							{
								"box" : 								{
									"maxclass" : "inlet",
									"numinlets" : 0,
									"numoutlets" : 1,
									"hidden" : 1,
									"outlettype" : [ "" ],
									"patching_rect" : [ 6.0, 246.0, 25.0, 25.0 ],
									"id" : "obj-3",
									"comment" : ""
								}

							}
, 							{
								"box" : 								{
									"maxclass" : "comment",
									"text" : "An implementation of the dynamic stochastic synthesis generator conceived by Iannis Xenakis and described in Formalized Music (1992, Stuyvesant, NY: Pendragon Press) chapter 9 (pp 246-254) and chapters 13 and 14 (pp 289-322). The BASIC program in the book was written by Marie-Helene Serra so I think it helpful to credit her too.  \n\nThe program code has been adapted to avoid infinities in the probability distribution functions. \n\nThe distributions are hard-coded in C but there is an option to have new amplitude or time breakpoints sampled from a continuous controller input. \n\nTechnical notes- X's plan as described in chapter 13 allows the 12 segments in the period to be successively modified with each new period. Yet the period is allowed to vary as the sum of the segment durations, as figure 1 demonstrates. We can setup some memory of n (conventionally 12) points, or even simply vary sucessively a single point's ordinate and duration. There are thus various schemes available to us. In one, fix period T and only move the (ti, Ei) within the period. In another, have a memory of 12 segments but allow continuous modification of the inter point intervals and the amplitudes. In yet another, just have one point and random walk its amplitude and duration based on the probability distribution. In this implementation I allow the user to initialise a certain number of memory points which is up to them. To restrict the period to be unchanging, you must set rate variation to zero (dscale=0).",
									"linecount" : 17,
									"fontsize" : 12.0,
									"numinlets" : 1,
									"numoutlets" : 0,
									"patching_rect" : [ 5.0, 6.0, 629.0, 241.0 ],
									"id" : "obj-2",
									"fontname" : "Arial"
								}

							}
 ],
						"lines" : [  ]
					}
,
					"saved_object_attributes" : 					{
						"default_fontname" : "Arial",
						"globalpatchername" : "",
						"fontface" : 0,
						"default_fontsize" : 12.0,
						"fontsize" : 12.0,
						"default_fontface" : 0,
						"fontname" : "Arial"
					}

				}

			}
, 			{
				"box" : 				{
					"maxclass" : "scope~",
					"numinlets" : 2,
					"numoutlets" : 0,
					"patching_rect" : [ 299.0, 379.0, 315.0, 128.0 ],
					"id" : "obj-1"
				}

			}
, 			{
				"box" : 				{
					"maxclass" : "newobj",
					"text" : "sc.gendy1~",
					"fontsize" : 10.0,
					"numinlets" : 1,
					"numoutlets" : 1,
					"outlettype" : [ "signal" ],
					"patching_rect" : [ 55.0, 311.0, 70.0, 19.0 ],
					"id" : "obj-3",
					"fontname" : "Verdana"
				}

			}
, 			{
				"box" : 				{
					"maxclass" : "newobj",
					"text" : "*~ 0.2",
					"fontsize" : 10.0,
					"numinlets" : 2,
					"numoutlets" : 1,
					"outlettype" : [ "signal" ],
					"patching_rect" : [ 55.0, 428.0, 45.0, 19.0 ],
					"id" : "obj-2",
					"fontname" : "Verdana"
				}

			}
, 			{
				"box" : 				{
					"maxclass" : "comment",
					"text" : "part of sc-max. http://github.com/sbl/sc-max\nport by stephen lumenta\nsupercollider is licensed under the GPL so is this.",
					"linecount" : 3,
					"fontsize" : 10.0,
					"numinlets" : 1,
					"numoutlets" : 0,
					"patching_rect" : [ 10.0, 613.0, 279.0, 43.0 ],
					"id" : "obj-12",
					"fontname" : "Verdana"
				}

			}
, 			{
				"box" : 				{
					"maxclass" : "comment",
					"text" : "sc.gendy1~",
					"fontface" : 3,
					"fontsize" : 16.0,
					"numinlets" : 1,
					"numoutlets" : 0,
					"patching_rect" : [ 9.0, 11.0, 125.0, 25.0 ],
					"id" : "obj-7",
					"fontname" : "Arial"
				}

			}
, 			{
				"box" : 				{
					"maxclass" : "ezdac~",
					"numinlets" : 2,
					"numoutlets" : 0,
					"patching_rect" : [ 55.0, 469.0, 45.0, 45.0 ],
					"id" : "obj-4"
				}

			}
, 			{
				"box" : 				{
					"maxclass" : "panel",
					"numinlets" : 1,
					"bgcolor" : [ 0.501961, 0.717647, 0.764706, 1.0 ],
					"numoutlets" : 0,
					"patching_rect" : [ 9.0, 6.0, 134.0, 34.0 ],
					"id" : "obj-10",
					"rounded" : 0
				}

			}
, 			{
				"box" : 				{
					"maxclass" : "message",
					"text" : "open",
					"fontsize" : 10.0,
					"numinlets" : 2,
					"numoutlets" : 1,
					"outlettype" : [ "" ],
					"patching_rect" : [ 266.0, 44.0, 50.0, 17.0 ],
					"id" : "obj-8",
					"fontname" : "Verdana"
				}

			}
, 			{
				"box" : 				{
					"maxclass" : "comment",
					"text" : "Documentation is from SC Helpfiles. More info ->",
					"fontsize" : 10.0,
					"numinlets" : 1,
					"numoutlets" : 0,
					"patching_rect" : [ 9.0, 42.0, 357.0, 19.0 ],
					"id" : "obj-9",
					"fontname" : "Verdana"
				}

			}
, 			{
				"box" : 				{
					"maxclass" : "message",
					"text" : "ampdist $1",
					"fontsize" : 10.0,
					"numinlets" : 2,
					"numoutlets" : 1,
					"outlettype" : [ "" ],
					"patching_rect" : [ 55.0, 281.0, 65.0, 17.0 ],
					"id" : "obj-13",
					"fontname" : "Verdana"
				}

			}
, 			{
				"box" : 				{
					"maxclass" : "message",
					"text" : "durdist $1",
					"fontsize" : 10.0,
					"numinlets" : 2,
					"numoutlets" : 1,
					"outlettype" : [ "" ],
					"patching_rect" : [ 123.0, 281.0, 60.0, 17.0 ],
					"id" : "obj-15",
					"fontname" : "Verdana"
				}

			}
, 			{
				"box" : 				{
					"maxclass" : "message",
					"text" : "adparam $1",
					"fontsize" : 10.0,
					"numinlets" : 2,
					"numoutlets" : 1,
					"outlettype" : [ "" ],
					"patching_rect" : [ 186.0, 281.0, 69.0, 17.0 ],
					"id" : "obj-16",
					"fontname" : "Verdana"
				}

			}
, 			{
				"box" : 				{
					"maxclass" : "message",
					"text" : "ddparam $1",
					"fontsize" : 10.0,
					"numinlets" : 2,
					"numoutlets" : 1,
					"outlettype" : [ "" ],
					"patching_rect" : [ 258.0, 281.0, 69.0, 17.0 ],
					"id" : "obj-18",
					"fontname" : "Verdana"
				}

			}
, 			{
				"box" : 				{
					"maxclass" : "message",
					"text" : "minfreq $1",
					"fontsize" : 10.0,
					"numinlets" : 2,
					"numoutlets" : 1,
					"outlettype" : [ "" ],
					"patching_rect" : [ 330.0, 281.0, 63.0, 17.0 ],
					"id" : "obj-11",
					"fontname" : "Verdana"
				}

			}
, 			{
				"box" : 				{
					"maxclass" : "message",
					"text" : "maxfreq $1",
					"fontsize" : 10.0,
					"numinlets" : 2,
					"numoutlets" : 1,
					"outlettype" : [ "" ],
					"patching_rect" : [ 396.0, 281.0, 66.0, 17.0 ],
					"id" : "obj-19",
					"fontname" : "Verdana"
				}

			}
, 			{
				"box" : 				{
					"maxclass" : "message",
					"text" : "ampscale $1",
					"fontsize" : 10.0,
					"numinlets" : 2,
					"numoutlets" : 1,
					"outlettype" : [ "" ],
					"patching_rect" : [ 465.0, 281.0, 72.0, 17.0 ],
					"id" : "obj-32",
					"fontname" : "Verdana"
				}

			}
, 			{
				"box" : 				{
					"maxclass" : "message",
					"text" : "durscale $1",
					"fontsize" : 10.0,
					"numinlets" : 2,
					"numoutlets" : 1,
					"outlettype" : [ "" ],
					"patching_rect" : [ 540.0, 281.0, 67.0, 17.0 ],
					"id" : "obj-33",
					"fontname" : "Verdana"
				}

			}
 ],
		"lines" : [ 			{
				"patchline" : 				{
					"source" : [ "obj-22", 0 ],
					"destination" : [ "obj-36", 0 ],
					"hidden" : 1,
					"midpoints" : [  ]
				}

			}
, 			{
				"patchline" : 				{
					"source" : [ "obj-22", 0 ],
					"destination" : [ "obj-35", 0 ],
					"hidden" : 1,
					"midpoints" : [  ]
				}

			}
, 			{
				"patchline" : 				{
					"source" : [ "obj-22", 0 ],
					"destination" : [ "obj-30", 0 ],
					"hidden" : 1,
					"midpoints" : [  ]
				}

			}
, 			{
				"patchline" : 				{
					"source" : [ "obj-22", 0 ],
					"destination" : [ "obj-25", 0 ],
					"hidden" : 1,
					"midpoints" : [  ]
				}

			}
, 			{
				"patchline" : 				{
					"source" : [ "obj-22", 0 ],
					"destination" : [ "obj-27", 0 ],
					"hidden" : 1,
					"midpoints" : [  ]
				}

			}
, 			{
				"patchline" : 				{
					"source" : [ "obj-22", 0 ],
					"destination" : [ "obj-21", 0 ],
					"hidden" : 1,
					"midpoints" : [  ]
				}

			}
, 			{
				"patchline" : 				{
					"source" : [ "obj-22", 0 ],
					"destination" : [ "obj-23", 0 ],
					"hidden" : 1,
					"midpoints" : [  ]
				}

			}
, 			{
				"patchline" : 				{
					"source" : [ "obj-22", 0 ],
					"destination" : [ "obj-17", 0 ],
					"hidden" : 1,
					"midpoints" : [  ]
				}

			}
, 			{
				"patchline" : 				{
					"source" : [ "obj-36", 0 ],
					"destination" : [ "obj-33", 0 ],
					"hidden" : 0,
					"midpoints" : [  ]
				}

			}
, 			{
				"patchline" : 				{
					"source" : [ "obj-35", 0 ],
					"destination" : [ "obj-32", 0 ],
					"hidden" : 0,
					"midpoints" : [  ]
				}

			}
, 			{
				"patchline" : 				{
					"source" : [ "obj-33", 0 ],
					"destination" : [ "obj-3", 0 ],
					"hidden" : 0,
					"midpoints" : [ 549.5, 304.0, 64.5, 304.0 ]
				}

			}
, 			{
				"patchline" : 				{
					"source" : [ "obj-32", 0 ],
					"destination" : [ "obj-3", 0 ],
					"hidden" : 0,
					"midpoints" : [ 474.5, 304.0, 64.5, 304.0 ]
				}

			}
, 			{
				"patchline" : 				{
					"source" : [ "obj-3", 0 ],
					"destination" : [ "obj-29", 0 ],
					"hidden" : 0,
					"midpoints" : [  ]
				}

			}
, 			{
				"patchline" : 				{
					"source" : [ "obj-18", 0 ],
					"destination" : [ "obj-3", 0 ],
					"hidden" : 0,
					"midpoints" : [ 267.5, 304.0, 64.5, 304.0 ]
				}

			}
, 			{
				"patchline" : 				{
					"source" : [ "obj-16", 0 ],
					"destination" : [ "obj-3", 0 ],
					"hidden" : 0,
					"midpoints" : [ 195.5, 304.0, 64.5, 304.0 ]
				}

			}
, 			{
				"patchline" : 				{
					"source" : [ "obj-13", 0 ],
					"destination" : [ "obj-3", 0 ],
					"hidden" : 0,
					"midpoints" : [ 64.5, 304.0, 64.5, 304.0 ]
				}

			}
, 			{
				"patchline" : 				{
					"source" : [ "obj-15", 0 ],
					"destination" : [ "obj-3", 0 ],
					"hidden" : 0,
					"midpoints" : [ 132.5, 304.0, 64.5, 304.0 ]
				}

			}
, 			{
				"patchline" : 				{
					"source" : [ "obj-11", 0 ],
					"destination" : [ "obj-3", 0 ],
					"hidden" : 0,
					"midpoints" : [ 339.5, 304.0, 64.5, 304.0 ]
				}

			}
, 			{
				"patchline" : 				{
					"source" : [ "obj-19", 0 ],
					"destination" : [ "obj-3", 0 ],
					"hidden" : 0,
					"midpoints" : [ 405.5, 304.0, 64.5, 304.0 ]
				}

			}
, 			{
				"patchline" : 				{
					"source" : [ "obj-29", 0 ],
					"destination" : [ "obj-1", 0 ],
					"hidden" : 0,
					"midpoints" : [ 182.0, 433.0, 255.0, 330.0 ]
				}

			}
, 			{
				"patchline" : 				{
					"source" : [ "obj-27", 0 ],
					"destination" : [ "obj-18", 0 ],
					"hidden" : 0,
					"midpoints" : [  ]
				}

			}
, 			{
				"patchline" : 				{
					"source" : [ "obj-21", 0 ],
					"destination" : [ "obj-16", 0 ],
					"hidden" : 0,
					"midpoints" : [  ]
				}

			}
, 			{
				"patchline" : 				{
					"source" : [ "obj-2", 0 ],
					"destination" : [ "obj-4", 1 ],
					"hidden" : 0,
					"midpoints" : [  ]
				}

			}
, 			{
				"patchline" : 				{
					"source" : [ "obj-2", 0 ],
					"destination" : [ "obj-4", 0 ],
					"hidden" : 0,
					"midpoints" : [  ]
				}

			}
, 			{
				"patchline" : 				{
					"source" : [ "obj-6", 0 ],
					"destination" : [ "obj-5", 0 ],
					"hidden" : 1,
					"midpoints" : [  ]
				}

			}
, 			{
				"patchline" : 				{
					"source" : [ "obj-8", 0 ],
					"destination" : [ "obj-6", 0 ],
					"hidden" : 1,
					"midpoints" : [  ]
				}

			}
, 			{
				"patchline" : 				{
					"source" : [ "obj-17", 0 ],
					"destination" : [ "obj-13", 0 ],
					"hidden" : 0,
					"midpoints" : [  ]
				}

			}
, 			{
				"patchline" : 				{
					"source" : [ "obj-23", 0 ],
					"destination" : [ "obj-15", 0 ],
					"hidden" : 0,
					"midpoints" : [  ]
				}

			}
, 			{
				"patchline" : 				{
					"source" : [ "obj-25", 0 ],
					"destination" : [ "obj-11", 0 ],
					"hidden" : 0,
					"midpoints" : [  ]
				}

			}
, 			{
				"patchline" : 				{
					"source" : [ "obj-30", 0 ],
					"destination" : [ "obj-19", 0 ],
					"hidden" : 0,
					"midpoints" : [  ]
				}

			}
, 			{
				"patchline" : 				{
					"source" : [ "obj-29", 0 ],
					"destination" : [ "obj-24", 0 ],
					"hidden" : 0,
					"midpoints" : [  ]
				}

			}
, 			{
				"patchline" : 				{
					"source" : [ "obj-24", 0 ],
					"destination" : [ "obj-2", 0 ],
					"hidden" : 0,
					"midpoints" : [  ]
				}

			}
 ]
	}

}
